<?xml version="1.0" encoding="UTF-8" standalone="no"?>
<!-- Created with Inkscape (http://www.inkscape.org/) -->

<svg
   width="6mm"
   height="4.5999999mm"
   viewBox="0 0 6 4.5999999"
   version="1.1"
   id="svg3770"
   inkscape:version="1.1.2 (0a00cf5339, 2022-02-04)"
   sodipodi:docname="courses.svg"
   xmlns:inkscape="http://www.inkscape.org/namespaces/inkscape"
   xmlns:sodipodi="http://sodipodi.sourceforge.net/DTD/sodipodi-0.dtd"
   xmlns:xlink="http://www.w3.org/1999/xlink"
   xmlns="http://www.w3.org/2000/svg"
   xmlns:svg="http://www.w3.org/2000/svg">
  <sodipodi:namedview
     id="namedview3772"
     pagecolor="#ffffff"
     bordercolor="#111111"
     borderopacity="1"
     inkscape:pageshadow="0"
     inkscape:pageopacity="0"
     inkscape:pagecheckerboard="1"
     inkscape:document-units="mm"
     showgrid="false"
     inkscape:zoom="13.452818"
     inkscape:cx="4.0140289"
     inkscape:cy="11.187247"
     inkscape:window-width="1280"
     inkscape:window-height="656"
     inkscape:window-x="0"
     inkscape:window-y="0"
     inkscape:window-maximized="1"
     inkscape:current-layer="layer1" />
  <defs
     id="defs3767">
    <linearGradient
       id="paint0_linear"
       x1="11.995"
       y1="4.5"
       x2="11.995"
       y2="21.145"
       gradientUnits="userSpaceOnUse">
      <stop
         stop-color="#B6F829"
         id="stop17"
         style="stop-color:#fa71cd;stop-opacity:1" />
      <stop
         offset="1"
         stop-color="#67DD0A"
         id="stop19"
         style="stop-color:#c471f5;stop-opacity:1" />
    </linearGradient>
    <linearGradient
       inkscape:collect="always"
       xlink:href="#paint0_linear"
       id="linearGradient2997"
       gradientUnits="userSpaceOnUse"
       x1="16.503901"
       y1="9.0098896"
       x2="16.503901"
       y2="11.01"
       spreadMethod="pad" />
    <linearGradient
       id="paint2_linear"
       x1="16.503901"
       y1="11.6699"
       x2="16.503901"
       y2="13.67"
       gradientUnits="userSpaceOnUse"
       spreadMethod="pad">
      <stop
         stop-color="#B6F829"
         id="stop27"
         style="stop-color:#ff99ac;stop-opacity:1" />
      <stop
         offset="1"
         stop-color="#67DD0A"
         id="stop29"
         style="stop-color:#ff6a88;stop-opacity:1" />
    </linearGradient>
    <linearGradient
       id="paint3_linear"
       x1="16.503901"
       y1="14.33"
       x2="16.503901"
       y2="16.33"
       gradientUnits="userSpaceOnUse"
       spreadMethod="pad">
      <stop
         stop-color="#B6F829"
         id="stop32"
         style="stop-color:#ff99ac;stop-opacity:1" />
      <stop
         offset="1"
         stop-color="#67DD0A"
         id="stop34"
         style="stop-color:#ff6a88;stop-opacity:1" />
    </linearGradient>
    <linearGradient
       inkscape:collect="always"
       xlink:href="#paint0_linear"
       id="linearGradient3740"
       gradientUnits="userSpaceOnUse"
       x1="16.503901"
       y1="11.6699"
       x2="16.503901"
       y2="13.67"
       spreadMethod="pad" />
    <linearGradient
       inkscape:collect="always"
       xlink:href="#paint0_linear"
       id="linearGradient1465"
       gradientUnits="userSpaceOnUse"
       x1="16.503901"
       y1="14.33"
       x2="16.503901"
       y2="16.33"
       spreadMethod="pad" />
  </defs>
  <g
     inkscape:label="Layer 1"
     inkscape:groupmode="layer"
     id="layer1">
    <g
       style="fill:none"
       id="g59"
       transform="matrix(0.26458333,0,0,0.26458333,-0.15799772,-1.0814697)">
      <path
         d="M 17.5,4.5 C 15.55,4.5 13.45,4.9 12,6 10.55,4.9 8.45,4.5 6.5,4.5 5.05,4.5 3.51,4.72 2.22,5.29 1.49,5.62 1,6.33 1,7.14 v 11.28 c 0,1.3 1.22,2.26 2.48,1.94 C 4.46,20.11 5.5,20 6.5,20 c 1.56,0 3.22,0.26 4.56,0.92 0.6,0.3 1.28,0.3 1.87,0 1.34,-0.67 3,-0.92 4.56,-0.92 1,0 2.04,0.11 3.02,0.36 1.26,0.33 2.48,-0.63 2.48,-1.94 V 7.14 C 22.99,6.33 22.5,5.62 21.77,5.29 20.49,4.72 18.95,4.5 17.5,4.5 Z M 21,17.23 c 0,0.63 -0.58,1.09 -1.2,0.98 -0.75,-0.14 -1.53,-0.2 -2.3,-0.2 -1.7,0 -4.15,0.65 -5.5,1.5 V 8 c 1.35,-0.85 3.8,-1.5 5.5,-1.5 0.92,0 1.83,0.09 2.7,0.28 0.46,0.1 0.8,0.51 0.8,0.98 z"
         fill="url(#paint0_linear)"
         id="path9"
         style="fill:url(#paint0_linear)" />
      <path
         d="m 13.9799,11.01 c -0.32,0 -0.61,-0.2 -0.71,-0.52 -0.13,-0.39 0.09,-0.82002 0.48,-0.94002 1.54,-0.5 3.53,-0.66 5.36,-0.45 0.41,0.05 0.71,0.42 0.66,0.83 -0.05,0.41002 -0.42,0.71002 -0.83,0.66002 -1.62,-0.19 -3.39,-0.04 -4.73,0.39 -0.08,0.01 -0.16,0.03 -0.23,0.03 z"
         fill="url(#paint1_linear)"
         id="path11"
         style="fill:url(#linearGradient2997);fill-opacity:1.0" />
      <path
         d="m 13.9799,13.67 c -0.32,0 -0.61,-0.2 -0.71,-0.52 -0.13,-0.39 0.09,-0.82 0.48,-0.94 1.53,-0.5 3.53,-0.66 5.36,-0.45 0.41,0.05 0.71,0.42 0.66,0.83 -0.05,0.41 -0.42,0.71 -0.83,0.66 -1.62,-0.19 -3.39,-0.04 -4.73,0.39 -0.08,0.02 -0.16,0.03 -0.23,0.03 z"
         fill="url(#paint2_linear)"
         id="path13"
         style="fill:url(#linearGradient3740);fill-opacity:1.0" />
      <path
         d="m 13.9799,16.33 c -0.32,0 -0.61,-0.2 -0.71,-0.52 -0.13,-0.39 0.09,-0.82 0.48,-0.94 1.53,-0.5 3.53,-0.66 5.36,-0.45 0.41,0.05 0.71,0.42 0.66,0.83 -0.05,0.41 -0.42,0.7 -0.83,0.66 -1.62,-0.19 -3.39,-0.04 -4.73,0.39 -0.08,0.02 -0.16,0.03 -0.23,0.03 z"
         fill="url(#paint3_linear)"
         id="path15"
         style="fill:url(#linearGradient1465);fill-opacity:1" />
    </g>
  </g>
</svg>
